<?xml version="1.0" encoding="iso-8859-1"?>
<!-- Generator: Adobe Illustrator 18.1.1, SVG Export Plug-In . SVG Version: 6.00 Build 0)  -->
<svg width="22px" height="24px" version="1.1" id="Capa_1" xmlns="http://www.w3.org/2000/svg" xmlns:xlink="http://www.w3.org/1999/xlink" x="0px" y="0px"
	 viewBox="0 0 27.789 27.789" style="enable-background:new 0 0 27.789 27.789;" xml:space="preserve">
<g>
		<path d="M16.945,21.355c0,0,4.729-9.627,4.729-13.577C21.673,3.482,18.188,0,13.892,0
			C9.597,0,6.115,3.482,6.115,7.779c0,3.892,5.346,13.583,5.346,13.583L16.945,21.355z M14.933,20.57h-0.887
			c-0.778-3.672-1.525-7.359-2.112-11.071c0.603,0.808,1.391,1.185,2.41,0.152c0.521-0.528,0.856-1.292,1.133-2.027
			C15.296,11.939,15.114,16.255,14.933,20.57z M13.892,0.789c3.854,0,6.989,3.136,6.989,6.99c0,3.259-3.522,10.877-4.434,12.79
			l-0.901,0.001c0.213-5.055,0.426-10.11,0.637-15.167c0.018-0.431-0.53-0.197-0.604,0.083c-0.149,0.591-0.341,1.169-0.545,1.744
			c-0.267,0.746-0.606,1.456-1.087,2.086c-1.114,1.457-2.17-1.562-2.372-2.07c-0.138-0.35-0.624,0.145-0.589,0.391
			c0.6,4.34,1.475,8.649,2.38,12.935l-1.438,0.002c-1.586-2.944-5.023-9.913-5.023-12.795C6.905,3.925,10.04,0.789,13.892,0.789z"/>
		<path d="M11.292,25.55c0,0.156,0.023,0.308,0.047,0.455c0,0-0.074,1.808,2.749,1.784
			c2.821-0.025,2.866-1.784,2.866-1.784c0.023-0.147,0.049-0.299,0.049-0.455v-3.442h-5.711V25.55z"/>
</g>

</svg>
